<svg width="15" height="16" viewBox="0 0 15 16" fill="none" xmlns="http://www.w3.org/2000/svg">
<path d="M4.31554 0.5H10.6845C11.8696 0.5 12.9478 0.983398 13.7301 1.75977C14.5137 2.53735 15 3.61035 15 4.78955V11.2117C15 12.3884 14.5137 13.4602 13.7326 14.2378L13.7301 14.2402C12.9466 15.0178 11.8683 15.5 10.6857 15.5H4.31554C3.1292 15.5 2.0497 15.0166 1.2674 14.2402L1.23792 14.2073C0.474046 13.4333 0 12.3738 0 11.2104V4.78955C0 3.60913 0.485099 2.53735 1.2674 1.75977C2.0497 0.982178 3.12797 0.5 4.31554 0.5ZM11.2383 4.28662L11.2469 4.30005H13.8996C13.7928 3.60669 13.46 2.98413 12.981 2.50684C12.3915 1.9209 11.5785 1.55713 10.6845 1.55713H9.59514L11.2383 4.28662ZM10.0115 4.30005L8.35967 1.55713H4.73678L6.40822 4.30005H10.0115ZM5.17152 4.30005L3.55535 1.64624C2.96463 1.78784 2.43532 2.0918 2.01899 2.50684C1.54004 2.98291 1.20845 3.60669 1.10038 4.30005H5.17152ZM13.9365 5.35718H1.06353V11.2117C1.06353 12.0869 1.41845 12.884 1.99198 13.4675L2.01899 13.4932C2.60848 14.0791 3.42271 14.4441 4.31554 14.4441H10.6845C11.5785 14.4441 12.3915 14.0803 12.9798 13.4956L12.9822 13.4932C13.5705 12.9084 13.9365 12.1003 13.9365 11.2117V5.35718ZM6.25716 7.20776L9.55215 9.33789C9.60496 9.37207 9.65286 9.41602 9.69093 9.46973C9.84076 9.68579 9.78549 9.98242 9.56812 10.1313L6.28664 12.0564C6.20436 12.1235 6.09874 12.1638 5.98207 12.1638C5.7168 12.1638 5.50188 11.9502 5.50188 11.6865V7.59839H5.50434C5.50434 7.50439 5.53259 7.40918 5.59031 7.32617C5.74259 7.11011 6.04102 7.05762 6.25716 7.20776Z" fill="#1B2351"/>
</svg>
